<svg xmlns="http://www.w3.org/2000/svg" viewBox="0 0 120 138">
  <!-- Original decorative instant-photo: a boxy off-roader in fog (drawn for the Telnyashka theme) -->
  <defs>
    <linearGradient id="sky" x1="0" y1="0" x2="0" y2="1"><stop offset="0" stop-color="#4a4038"/><stop offset=".6" stop-color="#2b2521"/><stop offset="1" stop-color="#15120f"/></linearGradient>
    <radialGradient id="fog" cx=".72" cy=".45" r=".6"><stop offset="0" stop-color="#8fb3b3" stop-opacity=".45"/><stop offset="1" stop-color="#8fb3b3" stop-opacity="0"/></radialGradient>
    <filter id="g"><feTurbulence type="fractalNoise" baseFrequency=".9" numOctaves="2" seed="3"/><feColorMatrix values="0 0 0 0 1 0 0 0 0 1 0 0 0 0 1 0 0 0 .16 0"/><feComposite in2="SourceGraphic" operator="in"/></filter>
  </defs>
  <rect width="120" height="138" rx="2" fill="#d9d2c3"/>
  <rect x="0" y="0" width="120" height="138" rx="2" fill="#b9ae97" opacity=".35"/>
  <rect x="8" y="8" width="104" height="100" fill="url(#sky)"/>
  <rect x="8" y="8" width="104" height="100" fill="url(#fog)"/>
  <!-- garages in the back -->
  <path d="M8 60 H112 V74 H8 Z" fill="#1d1916" opacity=".7"/>
  <path d="M16 62 h22 v12 h-22z M44 62 h22 v12 h-22z M72 62 h22 v12 h-22z" fill="#27211d" opacity=".8"/>
  <!-- the off-roader: boxy body, square cab, spare wheel -->
  <g fill="#0d0c0b">
    <path d="M26 88 V74 L34 66 H66 L72 74 H90 Q94 74 94 78 V88 Z"/>
    <rect x="93" y="76" width="4" height="10" rx="1.5"/>
    <circle cx="38" cy="90" r="8"/><circle cx="80" cy="90" r="8"/>
  </g>
  <path d="M36 68 H50 V74 H31 Z M53 68 H64 L68 74 H53 Z" fill="#3c4a4a" opacity=".85"/>
  <circle cx="90" cy="79" r="2" fill="#e8d9a8" opacity=".9"/>
  <path d="M92 79 L112 72 V88 Z" fill="#e8d9a8" opacity=".12"/>
  <rect x="8" y="96" width="104" height="12" fill="#0b0a09" opacity=".75"/>
  <rect x="8" y="8" width="104" height="100" filter="url(#g)"/>
</svg>
